<svg xmlns="http://www.w3.org/2000/svg" version="1.1" xmlns:xlink="http://www.w3.org/1999/xlink" xmlns:svgjs="http://svgjs.com/svgjs" width="500" height="1000" preserveAspectRatio="none" viewBox="0 0 500 1000"><g mask="url(&quot;#SvgjsMask1117&quot;)" fill="none"><rect width="500" height="1000" x="0" y="0" fill="rgba(29, 161, 242, 1)"></rect><path d="M0,401.471C74.324,416.528,146.104,367.61,210.003,326.772C274.028,285.854,329.935,233.994,366.379,167.32C404.659,97.286,431.229,18.609,421.76,-60.64C412.182,-140.799,374.855,-219.069,313.888,-271.986C256.179,-322.075,175.021,-326.33,99.847,-340.047C32.187,-352.393,-39.109,-375.391,-102.154,-347.903C-163.302,-321.242,-180.076,-244.022,-227.646,-197.257C-281.125,-144.683,-373.346,-128.078,-397.859,-57.203C-422.611,14.363,-397.393,100.329,-351.371,160.466C-307.856,217.327,-220.668,210.988,-161.622,251.488C-99.76,293.92,-73.523,386.577,0,401.471" fill="#0e9bf1"></path><path d="M500 1344.403C591.252 1354.818 675.675 1438.649 762.313 1408.167 848.682 1377.78 896.6949999999999 1281.287 925.969 1194.534 953.712 1112.317 931.2570000000001 1025.644 920.443 939.549 909.421 851.796 918.79 754.124 862.1220000000001 686.22 805.2239999999999 618.04 710.5029999999999 594.9169999999999 622.559 582.601 542.664 571.412 463.743 591.071 388.385 619.874 317.75 646.8720000000001 259.53 692.3589999999999 203.253 742.8679999999999 139.461 800.1220000000001 57.247000000000014 849.986 38.738999999999976 933.681 19.995000000000005 1018.443 64.20800000000003 1103.911 106.66899999999998 1179.628 146.639 1250.903 198.16899999999998 1320.804 273.53999999999996 1352.378 344.648 1382.166 423.402 1335.66 500 1344.403" fill="#2ca7f3"></path></g><defs><mask id="SvgjsMask1117"><rect width="500" height="1000" fill="#ffffff"></rect></mask></defs></svg>