<svg xmlns="http://www.w3.org/2000/svg" version="1.1" xmlns:xlink="http://www.w3.org/1999/xlink" xmlns:svgjs="http://svgjs.com/svgjs" width="500" height="1000" preserveAspectRatio="none" viewBox="0 0 500 1000"><g mask="url(&quot;#SvgjsMask1131&quot;)" fill="none"><rect width="500" height="1000" x="0" y="0" fill="rgba(29, 161, 242, 1)"></rect><path d="M0,425.312C82.73,445.485,182.147,439.478,246.879,384.152C311.127,329.239,306.74,230.783,324.324,148.114C338.296,82.426,340.638,18.402,338.955,-48.734C337.041,-125.12,359.476,-210.654,313.797,-271.907C267.81,-333.574,179.515,-338.354,106.025,-361.086C31.401,-384.169,-45.231,-431.042,-119.163,-405.832C-192.8,-380.722,-221.829,-294.968,-269.095,-233.172C-313.147,-175.579,-370.904,-126.341,-387.013,-55.644C-403.762,17.861,-399.224,100.079,-359.653,164.248C-321.479,226.15,-238.842,237.344,-179.987,280.066C-116.307,326.29,-76.448,406.671,0,425.312" fill="#0e9bf1"></path><path d="M500 1352.4769999999999C564.783 1349.635 611.452 1292.76 662.216 1252.413 708.03 1216 759.3910000000001 1182.748 781.648 1128.624 803.552 1075.359 778.756 1016.806 782.73 959.35 788.0989999999999 881.731 841.73 802.806 809.071 732.188 775.881 660.422 695.477 611.623 617.097 601.2049999999999 541.152 591.11 476.853 650.365 405.617 678.5609999999999 341.969 703.754 270.51599999999996 711.02 220.79399999999998 758.067 168.49599999999998 807.5509999999999 128.906 874.05 123.15899999999999 945.818 117.54199999999997 1015.965 152.20299999999997 1082.229 190.087 1141.533 224.293 1195.08 275.845 1231.306 328.372 1267.059 382.291 1303.759 434.839 1355.336 500 1352.4769999999999" fill="#2ca7f3"></path></g><defs><mask id="SvgjsMask1131"><rect width="500" height="1000" fill="#ffffff"></rect></mask></defs></svg>