<svg width="100" height="20" viewBox="0 0 100 20" fill="none" xmlns="http://www.w3.org/2000/svg">
<path d="M0 20V0H16V8.00001H12V4H4V8.00001H12V12H4V20H0ZM12 20V12H16V20H12Z" fill="white"/>
<path d="M20 20V0H32V4H24V8.00001H32V12H24V16H32V20H20Z" fill="white"/>
<path d="M36 20V0H48V4H40V8.00001H48V12H40V20H36Z" fill="white"/>
<path d="M52 20V0H56V16H64V20H52Z" fill="white"/>
<path d="M68 20V0H80V4H72V8.00001H80V12H72V16H80V20H68Z" fill="white"/>
<path d="M84 8.00001V0H88V8.00001H84ZM96 8.00001V0H100V8.00001H96ZM88 12V8.00001H96V12H88ZM84 20V12H88V20H84ZM96 20V12H100V20H96Z" fill="white"/>
</svg>
